<?xml version="1.0" encoding="UTF-8"?>
<!DOCTYPE svg PUBLIC "-//W3C//DTD SVG 1.1//EN" "http://www.w3.org/Graphics/SVG/1.1/DTD/svg11.dtd">
<svg xmlns="http://www.w3.org/2000/svg" version="1.1" width="128px" height="128px" style="shape-rendering:geometricPrecision; text-rendering:geometricPrecision; image-rendering:optimizeQuality; fill-rule:evenodd; clip-rule:evenodd" xmlns:xlink="http://www.w3.org/1999/xlink">
<g><path style="opacity:0.944" fill="#e35127" d="M 48.5,7.5 C 74.3593,4.63809 98.5259,9.63809 121,22.5C 121.831,55.4949 110.497,83.4949 87,106.5C 81.9182,99.338 77.0848,92.0047 72.5,84.5C 90.1745,75.4796 96.0078,61.4796 90,42.5C 85.383,33.2349 77.883,27.7349 67.5,26C 46.8537,24.9322 26.1871,24.0989 5.5,23.5C 18.696,14.9917 33.0293,9.65834 48.5,7.5 Z"/></g>
<g><path style="opacity:0.927" fill="#e35127" d="M 28.5,43.5 C 39.2221,43.1254 49.8888,43.6254 60.5,45C 65.8659,46.6997 68.5325,50.3664 68.5,56C 68.952,61.66 66.6186,65.66 61.5,68C 50.5549,69.3791 39.5549,69.8791 28.5,69.5C 28.5,60.8333 28.5,52.1667 28.5,43.5 Z"/></g>
<g><path style="opacity:0.902" fill="#e35127" d="M 28.5,88.5 C 35.5079,88.3337 42.5079,88.5004 49.5,89C 56.6846,99.4532 62.8513,110.287 68,121.5C 66.087,123.187 63.9203,123.687 61.5,123C 48.9927,115.483 38.1593,105.983 29,94.5C 28.5045,92.5273 28.3379,90.5273 28.5,88.5 Z"/></g>
</svg>
