<svg xmlns="http://www.w3.org/2000/svg" xmlns:xlink="http://www.w3.org/1999/xlink" version="1.1" width="256" height="256" viewBox="0 0 256 256" xml:space="preserve">
<g style="stroke: none; stroke-width: 0; stroke-dasharray: none; stroke-linecap: butt; stroke-linejoin: miter; stroke-miterlimit: 10; fill: none; fill-rule: nonzero; opacity: 1;" transform="translate(13.6466926070039 13.646692607003871) scale(2.53 2.53)">
	<path d="M 87.651 90 c -0.515 0 -1.029 -0.197 -1.42 -0.592 l -85.302 -86 C 0.151 2.624 0.156 1.358 0.941 0.58 c 0.783 -0.777 2.05 -0.773 2.828 0.012 l 85.302 86 c 0.778 0.784 0.772 2.051 -0.012 2.828 C 88.67 89.807 88.16 90 87.651 90 z" style="stroke: none; stroke-width: 1; stroke-dasharray: none; stroke-linecap: butt; stroke-linejoin: miter; stroke-miterlimit: 10; fill: rgb(184,184,184); fill-rule: nonzero; opacity: 1;" transform=" matrix(1 0 0 1 0 0) " stroke-linecap="round"/>
	<ellipse cx="75.184" cy="29.361" rx="3.234" ry="3.261" style="stroke: none; stroke-width: 1; stroke-dasharray: none; stroke-linecap: butt; stroke-linejoin: miter; stroke-miterlimit: 10; fill: rgb(184,184,184); fill-rule: nonzero; opacity: 1;" transform=" matrix(1 0 0 1 0 0) "/>
	<path d="M 74.83 77.074 H 10.563 C 4.738 77.074 0 72.305 0 66.442 v -39.61 C 0 20.969 4.738 16.2 10.563 16.2 h 4.66 c 0.692 0 1.373 -0.121 2.023 -0.358 c 1.034 -0.379 2.185 0.154 2.565 1.191 c 0.379 1.037 -0.154 2.186 -1.191 2.565 c -1.091 0.399 -2.234 0.602 -3.397 0.602 h -4.66 C 6.944 20.2 4 23.175 4 26.832 v 39.61 c 0 3.657 2.944 6.632 6.563 6.632 H 74.83 c 1.104 0 2 0.896 2 2 S 75.935 77.074 74.83 77.074 z" style="stroke: none; stroke-width: 1; stroke-dasharray: none; stroke-linecap: butt; stroke-linejoin: miter; stroke-miterlimit: 10; fill: rgb(184,184,184); fill-rule: nonzero; opacity: 1;" transform=" matrix(1 0 0 1 0 0) " stroke-linecap="round"/>
	<path d="M 45 66.508 c -11.772 0 -21.349 -9.648 -21.349 -21.508 c 0 -5.742 2.219 -11.141 6.247 -15.202 c 0.778 -0.785 2.045 -0.79 2.828 -0.012 c 0.785 0.778 0.79 2.044 0.012 2.828 c -3.28 3.308 -5.087 7.706 -5.087 12.386 c 0 9.654 7.783 17.508 17.349 17.508 c 4.631 0 8.986 -1.819 12.262 -5.122 c 0.775 -0.785 2.044 -0.79 2.828 -0.012 c 0.784 0.777 0.79 2.044 0.012 2.828 C 56.069 64.269 50.706 66.508 45 66.508 z" style="stroke: none; stroke-width: 1; stroke-dasharray: none; stroke-linecap: butt; stroke-linejoin: miter; stroke-miterlimit: 10; fill: rgb(184,184,184); fill-rule: nonzero; opacity: 1;" transform=" matrix(1 0 0 1 0 0) " stroke-linecap="round"/>
	<path d="M 86.375 73.5 c -0.404 0 -0.812 -0.122 -1.165 -0.376 c -0.897 -0.645 -1.102 -1.894 -0.457 -2.791 C 85.568 69.197 86 67.852 86 66.442 v -39.61 c 0 -3.657 -2.944 -6.632 -6.563 -6.632 h -4.66 c -3.68 0 -7.043 -2.03 -8.775 -5.298 l -1.407 -2.653 c -1.39 -2.62 -4.08 -4.247 -7.021 -4.247 H 32.427 c -2.319 0 -4.518 1.017 -6.032 2.791 c -0.716 0.84 -1.98 0.94 -2.819 0.223 c -0.84 -0.717 -0.94 -1.979 -0.223 -2.819 c 2.275 -2.666 5.583 -4.194 9.074 -4.194 h 25.146 c 4.426 0 8.471 2.442 10.555 6.373 l 1.407 2.653 c 1.038 1.957 3.047 3.172 5.242 3.172 h 4.66 C 85.262 16.2 90 20.969 90 26.832 v 39.61 c 0 2.252 -0.691 4.404 -1.999 6.225 C 87.61 73.211 86.997 73.5 86.375 73.5 z" style="stroke: none; stroke-width: 1; stroke-dasharray: none; stroke-linecap: butt; stroke-linejoin: miter; stroke-miterlimit: 10; fill: rgb(184,184,184); fill-rule: nonzero; opacity: 1;" transform=" matrix(1 0 0 1 0 0) " stroke-linecap="round"/>
	<path d="M 63.995 50.743 c -0.125 0 -0.253 -0.012 -0.381 -0.036 c -1.084 -0.209 -1.794 -1.258 -1.585 -2.343 c 0.213 -1.103 0.32 -2.234 0.32 -3.364 c 0 -9.654 -7.783 -17.507 -17.35 -17.507 c -1.167 0 -2.333 0.118 -3.468 0.349 c -1.087 0.224 -2.139 -0.477 -2.36 -1.559 c -0.221 -1.083 0.477 -2.139 1.559 -2.36 c 1.397 -0.286 2.833 -0.43 4.269 -0.43 c 11.772 0 21.35 9.648 21.35 21.507 c 0 1.384 -0.132 2.771 -0.393 4.122 C 65.772 50.078 64.935 50.743 63.995 50.743 z" style="stroke: none; stroke-width: 1; stroke-dasharray: none; stroke-linecap: butt; stroke-linejoin: miter; stroke-miterlimit: 10; fill: rgb(184,184,184); fill-rule: nonzero; opacity: 1;" transform=" matrix(1 0 0 1 0 0) " stroke-linecap="round"/>
</g>
</svg>