<svg xmlns="http://www.w3.org/2000/svg" xmlns:xlink="http://www.w3.org/1999/xlink" width="630" height="360"><path fill="#da0000" d="M0 0h630v360H0z"/><path fill="#fff" d="M0 0h630v240H0z"/><path fill="#239f40" d="M0 0h630v120H0z"/><g transform="translate(8.4 100.4)"><g id="e"><g id="c" fill="none" stroke="#fff" stroke-width="2"><path id="b" d="M0 1h26M1 10V5h8v4h8V5h-5M4 9h2m20 0h-5V5h8m0-5v9h8V0m-4 0v9" transform="scale(1.4)"/><path id="a" d="M0 7h9m1 0h9" transform="scale(2.8)"/><use xlink:href="#a" y="120"/><use xlink:href="#b" y="145.2"/></g><g id="d"><use xlink:href="#c" x="56"/><use xlink:href="#c" x="112"/><use xlink:href="#c" x="168"/></g></g><use xlink:href="#d" x="168"/><use xlink:href="#e" x="392"/></g><g fill="#da0000" transform="matrix(45 0 0 45 315 180)"><g id="f"><path d="M1.016-.016a.78.78 0 0 1-.414.687A1.004 1.004 0 0 0 .444-.741L.4-.775a.776.776 0 0 1 .617.76"/><path d="M.656-.047A.927.927 0 0 1-.557.834l.05.001A1.016 1.016 0 0 0 .333-.749a.92.92 0 0 1 .322.702M.262-.944A.142.142 0 0 1 0-.869l-.017-.017L0-.969A.132.132 0 0 0 .25-1a.14.14 0 0 1 .012.056"/><path d="M.12-.714A.3.3 0 0 1 0-.81l-.05.794L0 1 .079.892l.01-.25L.1.38.101.348V.335L.105.281.111.117l.005-.132.002-.039.002-.048zM0-.55Zm0 .865Z"/></g><use xlink:href="#f" transform="scale(-1 1)"/></g></svg>