<svg xmlns="http://www.w3.org/2000/svg" width="900" height="600" viewBox="-72 -48 144 96"><path fill="#fff" d="M-72-48v96H72v-96z"/><g stroke="#000" stroke-width="4"><path d="M-34.946-37.72-48.26-17.75m4.992 3.328 13.313-19.97m4.992 3.329-13.312 19.969m63.236 42.157 6.101-9.152m1.11-1.664 6.101-9.153m4.993 3.328-6.102 9.153m-1.11 1.664-6.101 9.152m4.992 3.329 6.102-9.153m1.11-1.664 6.1-9.153M-48.259 17.75l13.313 19.97m4.992-3.329-6.102-9.152m-1.109-1.664-6.102-9.153m4.993-3.328 13.312 19.97m63.236-42.158-6.101-9.153m-1.11-1.664-6.101-9.152m4.992-3.328 13.313 19.969m4.992-3.328-6.102-9.153m-1.11-1.664-6.1-9.153"/></g><path fill="#cd2e3a" d="M9.985 6.656A18 18 0 1 1-19.97-13.313a24 24 0 1 1 39.938 26.626"/><path fill="#0047a0" d="M0 0a12 12 0 1 1 19.97 13.313 24 24 0 1 1-39.94-26.626A12 12 0 1 0 0 0"/></svg>